<svg width="13" height="14" viewBox="0 0 13 14" fill="none" xmlns="http://www.w3.org/2000/svg">
<path d="M9.4375 0H3.3125C2.58789 0 2 0.587891 2 1.3125V12.6875C2 13.4121 2.58789 14 3.3125 14H9.4375C10.1621 14 10.75 13.4121 10.75 12.6875V1.3125C10.75 0.587891 10.1621 0 9.4375 0ZM6.375 13.125C5.89102 13.125 5.5 12.734 5.5 12.25C5.5 11.766 5.89102 11.375 6.375 11.375C6.85898 11.375 7.25 11.766 7.25 12.25C7.25 12.734 6.85898 13.125 6.375 13.125ZM9.4375 10.1719C9.4375 10.3523 9.28984 10.5 9.10938 10.5H3.64062C3.46016 10.5 3.3125 10.3523 3.3125 10.1719V1.64062C3.3125 1.46016 3.46016 1.3125 3.64062 1.3125H9.10938C9.28984 1.3125 9.4375 1.46016 9.4375 1.64062V10.1719Z" fill="#828282"/>
</svg>
