<svg viewBox="0 0 14 14" fill="none" xmlns="http://www.w3.org/2000/svg">
<g clip-path="url(#clip0)">
<path d="M13.6005 9.89321L10.538 8.58071C10.4072 8.52495 10.2618 8.51321 10.1237 8.54723C9.98562 8.58126 9.86232 8.65922 9.77238 8.76938L8.41613 10.4264C6.28762 9.42284 4.57467 7.70988 3.57109 5.58137L5.22813 4.22512C5.33851 4.13535 5.41663 4.01205 5.45067 3.87391C5.48472 3.73576 5.47283 3.59028 5.4168 3.4595L4.1043 0.396998C4.0428 0.256016 3.93405 0.140909 3.79678 0.0715251C3.65951 0.00214125 3.50233 -0.0171704 3.35234 0.01692L0.508594 0.67317C0.363992 0.706562 0.234977 0.787981 0.142607 0.904138C0.0502374 1.0203 -3.33104e-05 1.16433 1.65599e-08 1.31274C1.65599e-08 8.32641 5.68477 14.0002 12.6875 14.0002C12.836 14.0003 12.9801 13.9501 13.0963 13.8577C13.2125 13.7653 13.2939 13.6363 13.3273 13.4916L13.9836 10.6479C14.0175 10.4972 13.9977 10.3394 13.9278 10.2016C13.8579 10.0639 13.7422 9.95483 13.6005 9.89321Z" fill="#828282"/>
</g>
<defs>
<clipPath id="clip0">
<rect width="14" height="14" fill="white"/>
</clipPath>
</defs>
</svg>
