<svg width="12" height="12" viewBox="0 0 12 12" fill="none" xmlns="http://www.w3.org/2000/svg">
<g clip-path="url(#clip0)">
<path d="M11.6578 8.48011L9.03274 7.35509C8.9206 7.3073 8.79597 7.29723 8.67761 7.3264C8.55925 7.35557 8.45357 7.42239 8.37648 7.51682L7.21395 8.93715C5.38949 8.07693 3.92121 6.60866 3.06099 4.78419L4.48133 3.62167C4.57594 3.54472 4.64291 3.43903 4.67209 3.32062C4.70127 3.20221 4.69108 3.07751 4.64305 2.96541L3.51803 0.34036C3.46532 0.219516 3.3721 0.120851 3.25444 0.0613781C3.13677 0.00190514 3.00205 -0.014648 2.87349 0.0145729L0.435945 0.577083C0.311998 0.605705 0.201413 0.675494 0.122237 0.775059C0.0430614 0.874625 -2.85523e-05 0.998087 1.41945e-08 1.1253C1.41945e-08 7.13712 4.87274 12.0005 10.8752 12.0005C11.0024 12.0006 11.126 11.9575 11.2256 11.8783C11.3252 11.7991 11.395 11.6885 11.4236 11.5645L11.9861 9.127C12.0152 8.99781 11.9983 8.86255 11.9383 8.74448C11.8784 8.62641 11.7792 8.53293 11.6578 8.48011Z" fill="#828282"/>
</g>
<defs>
<clipPath id="clip0">
<rect width="12" height="12.0006" fill="white"/>
</clipPath>
</defs>
</svg>
