<svg width="112" height="112" viewBox="0 0 112 112" fill="none" xmlns="http://www.w3.org/2000/svg">
<path d="M4.896 78.52V26.536C4.896 18.664 6.816 12.472 10.656 7.96C14.592 3.448 20.352 1.192 27.936 1.192C35.52 1.192 41.28 3.448 45.216 7.96C49.152 12.472 51.12 18.664 51.12 26.536V78.52C51.12 86.392 49.152 92.632 45.216 97.24C41.28 101.752 35.52 104.008 27.936 104.008C20.448 104.008 14.736 101.752 10.8 97.24C6.864 92.632 4.896 86.392 4.896 78.52ZM15.984 25.96V79.24C15.984 88.936 19.968 93.784 27.936 93.784C35.904 93.784 39.888 88.936 39.888 79.24V25.96C39.888 16.168 35.904 11.272 27.936 11.272C19.968 11.272 15.984 16.168 15.984 25.96Z" fill="#F2F2F2"/>
<path d="M82.3208 103V20.488C78.0968 23.08 73.4408 24.52 68.3528 24.808V15.592C73.3448 15.4 77.0887 14.152 79.5847 11.848C82.0807 9.544 84.0968 6.328 85.6328 2.19999H93.4088V103H82.3208Z" fill="#F2F2F2"/>
</svg>
