<svg width="112" height="112" viewBox="0 0 112 112" fill="none" xmlns="http://www.w3.org/2000/svg">
<path d="M4.896 79.52V27.536C4.896 19.664 6.816 13.472 10.656 8.96C14.592 4.448 20.352 2.192 27.936 2.192C35.52 2.192 41.28 4.448 45.216 8.96C49.152 13.472 51.12 19.664 51.12 27.536V79.52C51.12 87.392 49.152 93.632 45.216 98.24C41.28 102.752 35.52 105.008 27.936 105.008C20.448 105.008 14.736 102.752 10.8 98.24C6.864 93.632 4.896 87.392 4.896 79.52ZM15.984 26.96V80.24C15.984 89.936 19.968 94.784 27.936 94.784C35.904 94.784 39.888 89.936 39.888 80.24V26.96C39.888 17.168 35.904 12.272 27.936 12.272C19.968 12.272 15.984 17.168 15.984 26.96Z" fill="#F2F2F2"/>
<path d="M67.3447 9.10399C71.0887 4.496 76.7528 2.192 84.3368 2.192C91.9208 2.192 97.5848 4.448 101.329 8.96C105.169 13.472 107.089 19.712 107.089 27.68C107.089 33.248 105.889 38.576 103.489 43.664C101.185 48.752 98.3528 53.216 94.9928 57.056C91.6328 60.8 88.2728 64.496 84.9128 68.144C81.6488 71.696 78.8167 75.536 76.4167 79.664C74.0167 83.792 72.8167 87.968 72.8167 92.192V93.776H105.937V104H61.7288V95.36C61.7288 89.408 62.8808 83.888 65.1848 78.8C67.5848 73.712 70.4167 69.344 73.6807 65.696C77.0407 61.952 80.4008 58.352 83.7607 54.896C87.1208 51.344 89.9528 47.312 92.2568 42.8C94.6568 38.192 95.8568 33.296 95.8568 28.112C95.8568 17.552 91.9208 12.272 84.0488 12.272C76.1768 12.272 72.2408 17.216 72.2408 27.104V36.032H61.7288V27.824C61.7288 19.856 63.6007 13.616 67.3447 9.10399Z" fill="#F2F2F2"/>
</svg>
