<svg width="112" height="112" viewBox="0 0 112 112" fill="none" xmlns="http://www.w3.org/2000/svg">
<path d="M4.896 79.52V27.536C4.896 19.664 6.816 13.472 10.656 8.96C14.592 4.448 20.352 2.192 27.936 2.192C35.52 2.192 41.28 4.448 45.216 8.96C49.152 13.472 51.12 19.664 51.12 27.536V79.52C51.12 87.392 49.152 93.632 45.216 98.24C41.28 102.752 35.52 105.008 27.936 105.008C20.448 105.008 14.736 102.752 10.8 98.24C6.864 93.632 4.896 87.392 4.896 79.52ZM15.984 26.96V80.24C15.984 89.936 19.968 94.784 27.936 94.784C35.904 94.784 39.888 89.936 39.888 80.24V26.96C39.888 17.168 35.904 12.272 27.936 12.272C19.968 12.272 15.984 17.168 15.984 26.96Z" fill="#F2F2F2"/>
<path d="M83.7607 2.192C91.3448 2.192 97.0088 4.448 100.753 8.96C104.593 13.376 106.513 19.568 106.513 27.536V30.128C106.513 40.88 102.433 47.792 94.2728 50.864C102.433 53.936 106.513 60.896 106.513 71.744V79.52C106.513 87.488 104.593 93.728 100.753 98.24C97.0088 102.752 91.3448 105.008 83.7607 105.008C76.2727 105.008 70.6088 102.752 66.7688 98.24C63.0248 93.728 61.1528 87.488 61.1528 79.52V72.608H71.6647V80.24C71.6647 89.936 75.6008 94.784 83.4728 94.784C91.3448 94.784 95.2807 89.6 95.2807 79.232V71.456C95.2807 61.76 91.0567 56.768 82.6087 56.48H76.5608V46.4H83.1848C87.0248 46.208 90.0008 44.96 92.1128 42.656C94.2248 40.256 95.2807 36.896 95.2807 32.576V27.968C95.2807 17.504 91.3448 12.272 83.4728 12.272C75.6008 12.272 71.6647 17.168 71.6647 26.96V32.144H61.1528V27.536C61.1528 19.568 63.0248 13.376 66.7688 8.96C70.6088 4.448 76.2727 2.192 83.7607 2.192Z" fill="#F2F2F2"/>
</svg>
