<svg width="112" height="112" viewBox="0 0 112 112" fill="none" xmlns="http://www.w3.org/2000/svg">
<path d="M4.896 84.52V32.536C4.896 24.664 6.816 18.472 10.656 13.96C14.592 9.448 20.352 7.192 27.936 7.192C35.52 7.192 41.28 9.448 45.216 13.96C49.152 18.472 51.12 24.664 51.12 32.536V84.52C51.12 92.392 49.152 98.632 45.216 103.24C41.28 107.752 35.52 110.008 27.936 110.008C20.448 110.008 14.736 107.752 10.8 103.24C6.864 98.632 4.896 92.392 4.896 84.52ZM15.984 31.96V85.24C15.984 94.936 19.968 99.784 27.936 99.784C35.904 99.784 39.888 94.936 39.888 85.24V31.96C39.888 22.168 35.904 17.272 27.936 17.272C19.968 17.272 15.984 22.168 15.984 31.96Z" fill="#F2F2F2"/>
<path d="M110.689 88.696H102.625V109H91.6807V88.696H59.1367V78.472L90.3848 8.19999H102.625V78.472H110.689V88.696ZM91.6807 29.224L69.5048 78.472H91.6807V29.224Z" fill="#F2F2F2"/>
</svg>
