<svg viewBox="0 0 120 120" fill="none" xmlns="http://www.w3.org/2000/svg">
<path d="M29.666 6.76447V35.3605L40.4628 41.5967V13.0001L29.6665 6.76416L29.666 6.76447Z" fill="#F89321"/>
<path d="M40.4619 13.001V41.5976L41.4618 42.1751V13.5786L40.4619 13.001Z" fill="#A74D1A"/>
<path d="M41.4612 13.5791V42.1757L49.9267 47.0654V45.8234L52.1931 44.1391V19.7779L41.4612 13.5791Z" fill="#F89321"/>
<path d="M63.9246 35.4196V13.0125L63.9241 13.0122L52.1929 19.777V44.1382L63.9246 35.4196Z" fill="#A74D1B"/>
<path d="M70.3246 16.301L64.7253 13.0669V34.8253L70.3246 38.0596V16.301Z" fill="#5C5C5C"/>
<path d="M70.3246 16.3018L74.724 13.7649L69.1248 10.5308L64.7253 13.0676L70.3246 16.3018Z" fill="#464646"/>
<path d="M74.7246 13.7646L70.3252 16.3015V38.06L72.8582 36.5993V31.7132L74.7246 30.6369V13.7646Z" fill="#323232"/>
<path d="M70.3257 38.0589L64.7265 34.8247L63.9266 35.4192L52.1948 44.1377L49.9285 45.822L70.6696 57.8023L70.3257 38.0589Z" fill="#808080"/>
<path d="M70.3252 38.0603L70.669 57.8037L72.8582 56.5413V46.6932V45.4114V36.5996L70.3252 38.0603Z" fill="#5C5C5C"/>
<path d="M70.6694 61.5716L72.8586 60.3092V56.5405L70.6694 57.8029V61.5716Z" fill="#313131"/>
<path d="M49.9285 49.5916L70.6696 61.5717V57.803L49.9285 45.8228V47.0647V49.5916Z" fill="#5C5C5C"/>
<path d="M95.3877 73.3234V59.7066L72.8574 46.6929V56.541V60.3097L95.3877 73.3234Z" fill="#F89321"/>
<path d="M95.3877 59.7062V58.4242L72.8574 45.4106V46.6925L95.3877 59.7062Z" fill="#A74D1A"/>
<path d="M95.3877 58.4239V44.7265L72.8574 31.7124V36.5985V45.4103L95.3877 58.4239Z" fill="#F89321"/>
<path d="M95.3877 44.727L107.119 37.9619L84.5892 24.9478L74.7238 30.6366L72.8574 31.7128L95.3877 44.727Z" fill="#D8834C"/>
<path d="M107.118 66.5581V37.9619L95.3867 44.727V58.4244V59.7063V73.3232L107.118 66.5581Z" fill="#B56333"/>
<path d="M13.7988 55.1594L39.9287 70.2522L58.5807 59.4966L32.4509 44.4038L13.7988 55.1594Z" fill="#FFEFCB"/>
<path d="M39.9287 70.2517L60.5926 82.1872L79.2446 71.4317L58.5807 59.4961L39.9287 70.2517Z" fill="#323232"/>
<path d="M60.5935 82.1876L85.5235 96.5873L104.176 85.8318L79.2455 71.4321L60.5935 82.1876Z" fill="#FFEFCB"/>
<path d="M85.5225 96.5875V98.7106L102.587 88.8706L104.174 87.9551V85.832L85.5225 96.5875Z" fill="#DCC9A1"/>
<path d="M84.3235 100.085V103.793V104.926V117.082V117.085L99.8025 108.159L102.588 106.553V88.8711L85.5233 98.7111L84.3235 98.0209V100.085Z" fill="#B56333"/>
<path d="M84.3215 117.085V117.082L82.7217 116.158V120L99.8004 110.151V108.159L84.3215 117.085Z" fill="#5D4F48"/>
<path d="M27.9299 84.5097L26.8634 83.8937L19.2644 79.5044V83.3463L82.7225 120V116.158L72.1906 110.075L71.1241 109.459L60.5921 103.376L39.9283 91.44L27.9299 84.5097Z" fill="#727272"/>
<path d="M84.3236 117.082V104.925L72.1919 97.918V110.075L82.7238 116.158L84.3236 117.082Z" fill="#F89321"/>
<path d="M84.3236 104.924V103.791L60.5935 90.084V91.2172L71.1254 97.3005V109.457L72.1919 110.073V97.9164L84.3236 104.924Z" fill="#A74D1A"/>
<path d="M60.5935 103.375L71.1254 109.459V97.3021L60.5935 91.2188V103.375Z" fill="#F89321"/>
<path d="M84.3236 103.792V100.084L60.5935 86.377V90.085L84.3236 103.792Z" fill="#F89321"/>
<path fill-rule="evenodd" clip-rule="evenodd" d="M39.9287 72.3755V74.4187V91.4396L60.5926 103.375V91.2186V90.0854V86.3773V84.311L39.9287 72.3755ZM57.8596 85.1739V99.1759L42.6617 90.3975V76.3955L57.8596 85.1739Z" fill="#C3C1B5"/>
<path d="M57.8608 99.1764V85.1744L42.6628 76.396V90.398L57.8608 99.1764Z" fill="#323232"/>
<path d="M84.3236 100.085V98.021L60.5935 84.3115V86.3779L84.3236 100.085Z" fill="#D9824C"/>
<path d="M27.9297 67.4888V84.5097L39.9281 91.4399V74.419L27.9297 67.4888Z" fill="#F89321"/>
<path d="M26.8638 64.8281V66.8713V83.8922L27.9303 84.5083V67.4874V65.4442L26.8638 64.8281Z" fill="#A74D1A"/>
<path d="M16.4666 60.8667V77.8876L19.2662 79.5046L26.8652 83.8939V66.873L16.4666 60.8667Z" fill="#F89321"/>
<path d="M16.4666 58.8232V60.8663L26.8652 66.8726V64.8294L16.4666 58.8232Z" fill="#D9824C"/>
<path d="M27.9297 65.4453V67.4885L39.9281 74.4188V72.3756L27.9297 65.4453Z" fill="#D9824C"/>
<path d="M16.4652 58.8226L26.8638 64.8287L27.9303 65.4447L39.9286 72.375L60.5925 84.3105L84.3227 98.0199L85.5225 98.7101V96.5871L60.5925 82.1874L39.9286 70.2519L13.7988 55.1592V57.2822L16.4652 58.8226Z" fill="#F7E7C4"/>
<path d="M41.4624 13.5783L52.1943 19.777L63.9255 13.0123L41.3975 0L29.6663 6.76472L40.4625 13.0007L41.4624 13.5783Z" fill="#D8834C"/>
<rect x="68.1558" y="91.7422" width="9.19876" height="1.06652" rx="0.533261" transform="rotate(30 68.1558 91.7422)" fill="#C2C4B7"/>
<rect x="79.9453" y="45.3267" width="9.19876" height="1.06652" rx="0.533261" transform="rotate(30 79.9453 45.3267)" fill="#C2C4B7"/>
<rect x="79.9453" y="59.8667" width="9.19876" height="1.06652" rx="0.533261" transform="rotate(30 79.9453 59.8667)" fill="#C2C4B7"/>
<rect x="74.1023" y="109.379" width="9.33208" height="1.06652" rx="0.533261" transform="rotate(-90 74.1023 109.379)" fill="#C2C4B7"/>
<rect x="68.4607" y="106.686" width="9.33208" height="1.06652" rx="0.533261" transform="rotate(-90 68.4607 106.686)" fill="#C2C4B7"/>
<rect x="29.8169" y="79.6533" width="9.33208" height="1.06652" rx="0.533261" transform="rotate(-90 29.8169 79.6533)" fill="#C2C4B7"/>
<rect x="24.1753" y="76.96" width="9.33208" height="1.06652" rx="0.533261" transform="rotate(-90 24.1753 76.96)" fill="#C2C4B7"/>
<rect x="43.3345" y="33.5952" width="9.33208" height="1.06652" rx="0.533261" transform="rotate(-90 43.3345 33.5952)" fill="#C2C4B7"/>
<rect x="37.6926" y="30.9014" width="9.33208" height="1.06652" rx="0.533261" transform="rotate(-90 37.6926 30.9014)" fill="#C2C4B7"/>
<ellipse cx="59.8967" cy="65.6136" rx="4.53272" ry="2.79962" fill="#C3C1B5"/>
<ellipse cx="52.4619" cy="69.9031" rx="4.53272" ry="2.79962" fill="#C3C1B5"/>
<ellipse cx="69.2937" cy="71.0789" rx="4.53272" ry="2.79962" fill="#C3C1B5"/>
<ellipse cx="61.8582" cy="75.3704" rx="4.53272" ry="2.79962" fill="#C3C1B5"/>
</svg>
