<svg width="204" height="42" viewBox="0 0 204 42" fill="none" xmlns="http://www.w3.org/2000/svg">
<path d="M0.26 28.9H3.9V25H16.302V28.9H19.942V21.36H16.822V6.8H13.182L2.6 21.36H0.26V28.9ZM13.182 21.36H7.098L13.182 12.988V21.36Z" fill="#333333"/>
<path d="M34.5109 13.04V25H38.1509V6.8H34.5109L25.9309 18.734V6.8H22.2909V25H25.9309L34.5109 13.04Z" fill="#333333"/>
<path d="M44.8988 12C44.8988 10.856 45.8348 9.92 46.9788 9.92C48.1228 9.92 49.0588 10.856 49.0588 12C49.0588 13.144 48.1228 14.08 46.9788 14.08H45.4188V17.72H46.9788C48.1228 17.72 49.0588 18.656 49.0588 19.8C49.0588 20.944 48.1228 21.88 46.9788 21.88C45.8348 21.88 44.8988 20.944 44.8988 19.8H41.2588C41.2588 22.946 43.8328 25.52 46.9788 25.52C50.1248 25.52 52.6987 22.946 52.6987 19.8C52.6987 18.292 52.1008 16.94 51.1388 15.9C52.1008 14.886 52.6987 13.508 52.6987 12C52.6987 8.854 50.1248 6.28 46.9788 6.28C43.8328 6.28 41.2588 8.854 41.2588 12H44.8988Z" fill="#333333"/>
<path d="M53.9866 25H57.9126L59.4726 21.1H66.7786L68.3386 25H72.2906L64.9586 6.8H61.3186L53.9866 25ZM63.1386 12.026L65.3226 17.46H60.9546L63.1386 12.026Z" fill="#333333"/>
<path d="M78.261 25H74.621V6.8H78.261V18.734L86.841 6.8H90.481V25H86.841V13.04L78.261 25ZM83.721 1.21C83.721 1.99 83.071 2.64 82.291 2.64C81.511 2.64 80.861 1.99 80.861 1.21V0.949998H77.221V1.21C77.221 4.018 79.483 6.28 82.291 6.28C85.099 6.28 87.361 4.018 87.361 1.21V0.949998H83.721V1.21Z" fill="#333333"/>
<path d="M106.849 25H110.489V6.8H106.849V14.08H98.2688V6.8H94.6288V25H98.2688V17.72H106.849V25Z" fill="#333333"/>
<path d="M127.117 15.64H114.377V19.02H127.117V15.64Z" fill="#333333"/>
<path d="M133.874 15.9C133.874 12.598 136.552 9.92 139.854 9.92C141.492 9.92 143 10.596 144.066 11.688L146.64 9.114C144.898 7.372 142.506 6.28 139.854 6.28C134.55 6.28 130.234 10.596 130.234 15.9C130.234 21.204 134.55 25.52 139.854 25.52C142.506 25.52 144.898 24.454 146.64 22.712L144.066 20.138C143 21.204 141.492 21.88 139.854 21.88C136.552 21.88 133.874 19.202 133.874 15.9Z" fill="#333333"/>
<path d="M162.251 13.04V25H165.891V6.8H162.251L153.671 18.734V6.8H150.031V25H153.671L162.251 13.04Z" fill="#333333"/>
<path d="M168.739 6.8V10.44H174.719V25H178.359V10.44H184.339V6.8H168.739Z" fill="#333333"/>
<path d="M199.423 13.04V25H203.063V6.8H199.423L190.843 18.734V6.8H187.203V25H190.843L199.423 13.04Z" fill="#333333"/>
<path d="M28.6959 36.075H27.1959V39H26.3084V32.425H27.1959V35.3125H28.7084L31.0209 32.425H31.9834L29.3959 35.6125L32.1709 39H31.1209L28.6959 36.075Z" fill="#333333"/>
<path d="M36.0521 39.0625C35.4188 39.0625 34.848 38.9208 34.3396 38.6375C33.8313 38.3458 33.4313 37.9458 33.1396 37.4375C32.848 36.9292 32.7021 36.3542 32.7021 35.7125C32.7021 35.0708 32.848 34.4958 33.1396 33.9875C33.4313 33.4792 33.8313 33.0833 34.3396 32.8C34.848 32.5167 35.4188 32.375 36.0521 32.375C36.6855 32.375 37.2563 32.5167 37.7646 32.8C38.273 33.0833 38.6688 33.4792 38.9521 33.9875C39.2438 34.4958 39.3896 35.0708 39.3896 35.7125C39.3896 36.3542 39.2438 36.9292 38.9521 37.4375C38.6688 37.9458 38.273 38.3458 37.7646 38.6375C37.2563 38.9208 36.6855 39.0625 36.0521 39.0625ZM36.0521 38.275C36.5188 38.275 36.9355 38.1708 37.3021 37.9625C37.6771 37.7458 37.9688 37.4417 38.1772 37.05C38.3855 36.6583 38.4896 36.2125 38.4896 35.7125C38.4896 35.2125 38.3855 34.7667 38.1772 34.375C37.9688 33.9833 37.6771 33.6833 37.3021 33.475C36.9355 33.2583 36.5188 33.15 36.0521 33.15C35.5855 33.15 35.1646 33.2583 34.7896 33.475C34.423 33.6833 34.1313 33.9833 33.9146 34.375C33.7063 34.7667 33.6021 35.2125 33.6021 35.7125C33.6021 36.2125 33.7063 36.6583 33.9146 37.05C34.1313 37.4417 34.423 37.7458 34.7896 37.9625C35.1646 38.1708 35.5855 38.275 36.0521 38.275Z" fill="#333333"/>
<path d="M44.6739 32.375C45.2906 32.375 45.8489 32.5167 46.3489 32.8C46.8489 33.075 47.2406 33.4667 47.5239 33.975C47.8073 34.4833 47.9489 35.0625 47.9489 35.7125C47.9489 36.3708 47.8073 36.9542 47.5239 37.4625C47.2406 37.9708 46.8489 38.3667 46.3489 38.65C45.8573 38.925 45.2989 39.0625 44.6739 39.0625C44.1406 39.0625 43.6573 38.9542 43.2239 38.7375C42.7989 38.5125 42.4489 38.1875 42.1739 37.7625V41.425H41.2864V32.425H42.1364V33.725C42.4031 33.2917 42.7531 32.9583 43.1864 32.725C43.6281 32.4917 44.1239 32.375 44.6739 32.375ZM44.6114 38.275C45.0698 38.275 45.4864 38.1708 45.8614 37.9625C46.2364 37.7458 46.5281 37.4417 46.7364 37.05C46.9531 36.6583 47.0614 36.2125 47.0614 35.7125C47.0614 35.2125 46.9531 34.7708 46.7364 34.3875C46.5281 33.9958 46.2364 33.6917 45.8614 33.475C45.4864 33.2583 45.0698 33.15 44.6114 33.15C44.1448 33.15 43.7239 33.2583 43.3489 33.475C42.9823 33.6917 42.6906 33.9958 42.4739 34.3875C42.2656 34.7708 42.1614 35.2125 42.1614 35.7125C42.1614 36.2125 42.2656 36.6583 42.4739 37.05C42.6906 37.4417 42.9823 37.7458 43.3489 37.9625C43.7239 38.1708 44.1448 38.275 44.6114 38.275Z" fill="#333333"/>
<path d="M55.7558 32.425V39H54.8683V33.2125H50.7433V39H49.8558V32.425H55.7558Z" fill="#333333"/>
<path d="M63.8661 32.425L60.5786 39.7875C60.3119 40.4042 60.0036 40.8417 59.6536 41.1C59.3036 41.3583 58.8828 41.4875 58.3911 41.4875C58.0744 41.4875 57.7786 41.4375 57.5036 41.3375C57.2286 41.2375 56.9911 41.0875 56.7911 40.8875L57.2036 40.225C57.5369 40.5583 57.9369 40.725 58.4036 40.725C58.7036 40.725 58.9578 40.6417 59.1661 40.475C59.3828 40.3083 59.5828 40.025 59.7661 39.625L60.0536 38.9875L57.1161 32.425H58.0411L60.5161 38.0125L62.9911 32.425H63.8661Z" fill="#333333"/>
<path d="M67.8157 39.0625C67.1657 39.0625 66.5824 38.9208 66.0657 38.6375C65.5574 38.3542 65.1574 37.9583 64.8657 37.45C64.5741 36.9333 64.4282 36.3542 64.4282 35.7125C64.4282 35.0708 64.5741 34.4958 64.8657 33.9875C65.1574 33.4792 65.5574 33.0833 66.0657 32.8C66.5824 32.5167 67.1657 32.375 67.8157 32.375C68.3824 32.375 68.8866 32.4875 69.3282 32.7125C69.7782 32.9292 70.1324 33.25 70.3907 33.675L69.7282 34.125C69.5116 33.8 69.2366 33.5583 68.9032 33.4C68.5699 33.2333 68.2074 33.15 67.8157 33.15C67.3407 33.15 66.9116 33.2583 66.5282 33.475C66.1532 33.6833 65.8574 33.9833 65.6407 34.375C65.4324 34.7667 65.3282 35.2125 65.3282 35.7125C65.3282 36.2208 65.4324 36.6708 65.6407 37.0625C65.8574 37.4458 66.1532 37.7458 66.5282 37.9625C66.9116 38.1708 67.3407 38.275 67.8157 38.275C68.2074 38.275 68.5699 38.1958 68.9032 38.0375C69.2366 37.8792 69.5116 37.6375 69.7282 37.3125L70.3907 37.7625C70.1324 38.1875 69.7782 38.5125 69.3282 38.7375C68.8782 38.9542 68.3741 39.0625 67.8157 39.0625Z" fill="#333333"/>
<path d="M72.1092 32.425H72.9967V35.3375H77.1342V32.425H78.0217V39H77.1342V36.1H72.9967V39H72.1092V32.425Z" fill="#333333"/>
<path d="M82.8067 32.375C83.6651 32.375 84.3234 32.5917 84.7817 33.025C85.2401 33.45 85.4692 34.0833 85.4692 34.925V39H84.6192V37.975C84.4192 38.3167 84.1234 38.5833 83.7317 38.775C83.3484 38.9667 82.8901 39.0625 82.3567 39.0625C81.6234 39.0625 81.0401 38.8875 80.6067 38.5375C80.1734 38.1875 79.9567 37.725 79.9567 37.15C79.9567 36.5917 80.1567 36.1417 80.5567 35.8C80.9651 35.4583 81.6109 35.2875 82.4942 35.2875H84.5817V34.8875C84.5817 34.3208 84.4234 33.8917 84.1067 33.6C83.7901 33.3 83.3276 33.15 82.7192 33.15C82.3026 33.15 81.9026 33.2208 81.5192 33.3625C81.1359 33.4958 80.8067 33.6833 80.5317 33.925L80.1317 33.2625C80.4651 32.9792 80.8651 32.7625 81.3317 32.6125C81.7984 32.4542 82.2901 32.375 82.8067 32.375ZM82.4942 38.3625C82.9942 38.3625 83.4234 38.25 83.7817 38.025C84.1401 37.7917 84.4067 37.4583 84.5817 37.025V35.95H82.5192C81.3942 35.95 80.8317 36.3417 80.8317 37.125C80.8317 37.5083 80.9776 37.8125 81.2692 38.0375C81.5609 38.2542 81.9692 38.3625 82.4942 38.3625Z" fill="#333333"/>
<path d="M92.8818 32.425V39H92.0693V36.825H89.7568L88.2318 39H87.2693L88.9068 36.7C88.3985 36.5583 88.0068 36.3167 87.7318 35.975C87.4568 35.6333 87.3193 35.2 87.3193 34.675C87.3193 33.9417 87.5693 33.3833 88.0693 33C88.5693 32.6167 89.2527 32.425 90.1193 32.425H92.8818ZM88.2193 34.7C88.2193 35.675 88.8402 36.1625 90.0818 36.1625H92.0693V33.2125H90.1443C88.861 33.2125 88.2193 33.7083 88.2193 34.7Z" fill="#333333"/>
<path d="M106.034 32.425V39H105.221V33.8L102.559 38.2H102.159L99.4964 33.7875V39H98.6839V32.425H99.5839L102.371 37.1625L105.209 32.425H106.034Z" fill="#333333"/>
<path d="M114.309 35.9875H108.809C108.859 36.6708 109.122 37.225 109.597 37.65C110.072 38.0667 110.672 38.275 111.397 38.275C111.805 38.275 112.18 38.2042 112.522 38.0625C112.864 37.9125 113.159 37.6958 113.409 37.4125L113.909 37.9875C113.618 38.3375 113.251 38.6042 112.809 38.7875C112.376 38.9708 111.897 39.0625 111.372 39.0625C110.697 39.0625 110.097 38.9208 109.572 38.6375C109.055 38.3458 108.651 37.9458 108.359 37.4375C108.068 36.9292 107.922 36.3542 107.922 35.7125C107.922 35.0708 108.059 34.4958 108.334 33.9875C108.618 33.4792 109.001 33.0833 109.484 32.8C109.976 32.5167 110.526 32.375 111.134 32.375C111.743 32.375 112.289 32.5167 112.772 32.8C113.255 33.0833 113.634 33.4792 113.909 33.9875C114.184 34.4875 114.322 35.0625 114.322 35.7125L114.309 35.9875ZM111.134 33.1375C110.501 33.1375 109.968 33.3417 109.534 33.75C109.109 34.15 108.868 34.675 108.809 35.325H113.472C113.414 34.675 113.168 34.15 112.734 33.75C112.309 33.3417 111.776 33.1375 111.134 33.1375Z" fill="#333333"/>
<path d="M119.474 32.5875C120.082 32.5875 120.624 32.725 121.099 33C121.582 33.2667 121.957 33.6458 122.224 34.1375C122.491 34.6208 122.624 35.175 122.624 35.8C122.624 36.4417 122.482 37.0125 122.199 37.5125C121.924 38.0042 121.536 38.3875 121.036 38.6625C120.536 38.9375 119.961 39.075 119.311 39.075C118.22 39.075 117.374 38.6917 116.774 37.925C116.174 37.1583 115.874 36.1 115.874 34.75C115.874 33.3417 116.141 32.2625 116.674 31.5125C117.216 30.7625 118.057 30.2542 119.199 29.9875L122.149 29.3125L122.299 30.125L119.524 30.7625C118.582 30.9708 117.891 31.3417 117.449 31.875C117.007 32.4 116.766 33.1792 116.724 34.2125C116.991 33.7042 117.361 33.3083 117.836 33.025C118.311 32.7333 118.857 32.5875 119.474 32.5875ZM119.336 38.3375C119.795 38.3375 120.203 38.2333 120.561 38.025C120.928 37.8083 121.211 37.5083 121.411 37.125C121.62 36.7417 121.724 36.3083 121.724 35.825C121.724 35.3417 121.624 34.9167 121.424 34.55C121.224 34.1833 120.941 33.9 120.574 33.7C120.216 33.4917 119.803 33.3875 119.336 33.3875C118.87 33.3875 118.453 33.4917 118.086 33.7C117.728 33.9 117.445 34.1833 117.236 34.55C117.036 34.9167 116.936 35.3417 116.936 35.825C116.936 36.3083 117.036 36.7417 117.236 37.125C117.445 37.5083 117.732 37.8083 118.099 38.025C118.466 38.2333 118.878 38.3375 119.336 38.3375Z" fill="#333333"/>
<path d="M130.276 35.9875H124.776C124.826 36.6708 125.089 37.225 125.564 37.65C126.039 38.0667 126.639 38.275 127.364 38.275C127.772 38.275 128.147 38.2042 128.489 38.0625C128.83 37.9125 129.126 37.6958 129.376 37.4125L129.876 37.9875C129.585 38.3375 129.218 38.6042 128.776 38.7875C128.343 38.9708 127.864 39.0625 127.339 39.0625C126.664 39.0625 126.064 38.9208 125.539 38.6375C125.022 38.3458 124.618 37.9458 124.326 37.4375C124.035 36.9292 123.889 36.3542 123.889 35.7125C123.889 35.0708 124.026 34.4958 124.301 33.9875C124.585 33.4792 124.968 33.0833 125.451 32.8C125.943 32.5167 126.493 32.375 127.101 32.375C127.71 32.375 128.255 32.5167 128.739 32.8C129.222 33.0833 129.601 33.4792 129.876 33.9875C130.151 34.4875 130.289 35.0625 130.289 35.7125L130.276 35.9875ZM127.101 33.1375C126.468 33.1375 125.935 33.3417 125.501 33.75C125.076 34.15 124.835 34.675 124.776 35.325H129.439C129.38 34.675 129.135 34.15 128.701 33.75C128.276 33.3417 127.743 33.1375 127.101 33.1375Z" fill="#333333"/>
<path d="M137.494 32.425V39H136.606V33.2125H133.456L133.369 34.8375C133.302 36.2042 133.144 37.2542 132.894 37.9875C132.644 38.7208 132.198 39.0875 131.556 39.0875C131.381 39.0875 131.169 39.0542 130.919 38.9875L130.981 38.225C131.131 38.2583 131.236 38.275 131.294 38.275C131.636 38.275 131.894 38.1167 132.069 37.8C132.244 37.4833 132.361 37.0917 132.419 36.625C132.477 36.1583 132.527 35.5417 132.569 34.775L132.681 32.425H137.494Z" fill="#333333"/>
<path d="M142.842 34.75C143.667 34.7583 144.292 34.9417 144.717 35.3C145.15 35.6583 145.367 36.175 145.367 36.85C145.367 37.55 145.134 38.0875 144.667 38.4625C144.209 38.8375 143.542 39.0208 142.667 39.0125L140.017 39V32.425H140.904V34.725L142.842 34.75ZM142.617 38.3375C143.225 38.3458 143.684 38.225 143.992 37.975C144.309 37.7167 144.467 37.3417 144.467 36.85C144.467 36.3667 144.313 36.0083 144.004 35.775C143.696 35.5417 143.234 35.4208 142.617 35.4125L140.904 35.3875V38.3125L142.617 38.3375Z" fill="#333333"/>
<path d="M150.332 32.425H151.219V35.3375H155.357V32.425H156.244V39H155.357V36.1H151.219V39H150.332V32.425Z" fill="#333333"/>
<path d="M161.029 32.375C161.888 32.375 162.546 32.5917 163.004 33.025C163.463 33.45 163.692 34.0833 163.692 34.925V39H162.842V37.975C162.642 38.3167 162.346 38.5833 161.954 38.775C161.571 38.9667 161.113 39.0625 160.579 39.0625C159.846 39.0625 159.263 38.8875 158.829 38.5375C158.396 38.1875 158.179 37.725 158.179 37.15C158.179 36.5917 158.379 36.1417 158.779 35.8C159.188 35.4583 159.834 35.2875 160.717 35.2875H162.804V34.8875C162.804 34.3208 162.646 33.8917 162.329 33.6C162.013 33.3 161.55 33.15 160.942 33.15C160.525 33.15 160.125 33.2208 159.742 33.3625C159.359 33.4958 159.029 33.6833 158.754 33.925L158.354 33.2625C158.688 32.9792 159.088 32.7625 159.554 32.6125C160.021 32.4542 160.513 32.375 161.029 32.375ZM160.717 38.3625C161.217 38.3625 161.646 38.25 162.004 38.025C162.363 37.7917 162.629 37.4583 162.804 37.025V35.95H160.742C159.617 35.95 159.054 36.3417 159.054 37.125C159.054 37.5083 159.2 37.8125 159.492 38.0375C159.784 38.2542 160.192 38.3625 160.717 38.3625Z" fill="#333333"/>
<path d="M172.526 35.575C172.993 35.6833 173.351 35.8708 173.601 36.1375C173.859 36.4042 173.988 36.7292 173.988 37.1125C173.988 37.4958 173.855 37.8375 173.588 38.1375C173.33 38.4375 172.976 38.6708 172.526 38.8375C172.076 38.9958 171.58 39.075 171.038 39.075C170.563 39.075 170.097 39.0083 169.638 38.875C169.18 38.7333 168.78 38.5292 168.438 38.2625L168.738 37.6C169.038 37.825 169.388 38 169.788 38.125C170.188 38.25 170.593 38.3125 171.001 38.3125C171.609 38.3125 172.105 38.2 172.488 37.975C172.88 37.7417 173.076 37.4292 173.076 37.0375C173.076 36.6875 172.918 36.4167 172.601 36.225C172.284 36.025 171.851 35.925 171.301 35.925H170.176V35.275H171.251C171.743 35.275 172.138 35.1833 172.438 35C172.738 34.8083 172.888 34.5542 172.888 34.2375C172.888 33.8875 172.718 33.6125 172.376 33.4125C172.043 33.2125 171.605 33.1125 171.063 33.1125C170.355 33.1125 169.655 33.2917 168.963 33.65L168.713 32.9625C169.497 32.5542 170.309 32.35 171.151 32.35C171.651 32.35 172.101 32.425 172.501 32.575C172.909 32.7167 173.226 32.9208 173.451 33.1875C173.684 33.4542 173.801 33.7625 173.801 34.1125C173.801 34.4458 173.684 34.7417 173.451 35C173.226 35.2583 172.918 35.45 172.526 35.575Z" fill="#333333"/>
<path d="M178.266 32.375C179.124 32.375 179.782 32.5917 180.241 33.025C180.699 33.45 180.928 34.0833 180.928 34.925V39H180.078V37.975C179.878 38.3167 179.582 38.5833 179.191 38.775C178.807 38.9667 178.349 39.0625 177.816 39.0625C177.082 39.0625 176.499 38.8875 176.066 38.5375C175.632 38.1875 175.416 37.725 175.416 37.15C175.416 36.5917 175.616 36.1417 176.016 35.8C176.424 35.4583 177.07 35.2875 177.953 35.2875H180.041V34.8875C180.041 34.3208 179.882 33.8917 179.566 33.6C179.249 33.3 178.787 33.15 178.178 33.15C177.762 33.15 177.362 33.2208 176.978 33.3625C176.595 33.4958 176.266 33.6833 175.991 33.925L175.591 33.2625C175.924 32.9792 176.324 32.7625 176.791 32.6125C177.257 32.4542 177.749 32.375 178.266 32.375ZM177.953 38.3625C178.453 38.3625 178.882 38.25 179.241 38.025C179.599 37.7917 179.866 37.4583 180.041 37.025V35.95H177.978C176.853 35.95 176.291 36.3417 176.291 37.125C176.291 37.5083 176.437 37.8125 176.728 38.0375C177.02 38.2542 177.428 38.3625 177.953 38.3625Z" fill="#333333"/>
<path d="M185.678 36.075H184.178V39H183.291V32.425H184.178V35.3125H185.691L188.003 32.425H188.966L186.378 35.6125L189.153 39H188.103L185.678 36.075Z" fill="#333333"/>
<path d="M192.694 32.375C193.553 32.375 194.211 32.5917 194.669 33.025C195.128 33.45 195.357 34.0833 195.357 34.925V39H194.507V37.975C194.307 38.3167 194.011 38.5833 193.619 38.775C193.236 38.9667 192.778 39.0625 192.244 39.0625C191.511 39.0625 190.928 38.8875 190.494 38.5375C190.061 38.1875 189.844 37.725 189.844 37.15C189.844 36.5917 190.044 36.1417 190.444 35.8C190.853 35.4583 191.499 35.2875 192.382 35.2875H194.469V34.8875C194.469 34.3208 194.311 33.8917 193.994 33.6C193.678 33.3 193.215 33.15 192.607 33.15C192.19 33.15 191.79 33.2208 191.407 33.3625C191.024 33.4958 190.694 33.6833 190.419 33.925L190.019 33.2625C190.353 32.9792 190.753 32.7625 191.219 32.6125C191.686 32.4542 192.178 32.375 192.694 32.375ZM192.382 38.3625C192.882 38.3625 193.311 38.25 193.669 38.025C194.028 37.7917 194.294 37.4583 194.469 37.025V35.95H192.407C191.282 35.95 190.719 36.3417 190.719 37.125C190.719 37.5083 190.865 37.8125 191.157 38.0375C191.449 38.2542 191.857 38.3625 192.382 38.3625Z" fill="#333333"/>
<path d="M200.785 35.575C201.252 35.6833 201.61 35.8708 201.86 36.1375C202.119 36.4042 202.248 36.7292 202.248 37.1125C202.248 37.4958 202.114 37.8375 201.848 38.1375C201.589 38.4375 201.235 38.6708 200.785 38.8375C200.335 38.9958 199.839 39.075 199.298 39.075C198.823 39.075 198.356 39.0083 197.898 38.875C197.439 38.7333 197.039 38.5292 196.698 38.2625L196.998 37.6C197.298 37.825 197.648 38 198.048 38.125C198.448 38.25 198.852 38.3125 199.26 38.3125C199.869 38.3125 200.364 38.2 200.748 37.975C201.139 37.7417 201.335 37.4292 201.335 37.0375C201.335 36.6875 201.177 36.4167 200.86 36.225C200.544 36.025 200.11 35.925 199.56 35.925H198.435V35.275H199.51C200.002 35.275 200.398 35.1833 200.698 35C200.998 34.8083 201.148 34.5542 201.148 34.2375C201.148 33.8875 200.977 33.6125 200.635 33.4125C200.302 33.2125 199.864 33.1125 199.323 33.1125C198.614 33.1125 197.914 33.2917 197.223 33.65L196.973 32.9625C197.756 32.5542 198.569 32.35 199.41 32.35C199.91 32.35 200.36 32.425 200.76 32.575C201.169 32.7167 201.485 32.9208 201.71 33.1875C201.944 33.4542 202.06 33.7625 202.06 34.1125C202.06 34.4458 201.944 34.7417 201.71 35C201.485 35.2583 201.177 35.45 200.785 35.575Z" fill="#333333"/>
</svg>
