<svg width="130" height="20" viewBox="0 0 130 20" fill="none" xmlns="http://www.w3.org/2000/svg">
<g opacity="1">
<path d="M0.1625 18.6875H2.4375V16.25H10.1888V18.6875H12.4638V13.975H10.5138V4.875H8.23875L1.625 13.975H0.1625V18.6875ZM8.23875 13.975H4.43625L8.23875 8.7425V13.975Z" fill="#333333"/>
<path d="M21.5693 8.775V16.25H23.8443V4.875H21.5693L16.2068 12.3337V4.875H13.9318V16.25H16.2068L21.5693 8.775Z" fill="#333333"/>
<path d="M28.0617 8.125C28.0617 7.41 28.6467 6.825 29.3617 6.825C30.0767 6.825 30.6617 7.41 30.6617 8.125C30.6617 8.84 30.0767 9.425 29.3617 9.425H28.3867V11.7H29.3617C30.0767 11.7 30.6617 12.285 30.6617 13C30.6617 13.715 30.0767 14.3 29.3617 14.3C28.6467 14.3 28.0617 13.715 28.0617 13H25.7867C25.7867 14.9662 27.3955 16.575 29.3617 16.575C31.328 16.575 32.9367 14.9662 32.9367 13C32.9367 12.0575 32.563 11.2125 31.9617 10.5625C32.563 9.92875 32.9367 9.0675 32.9367 8.125C32.9367 6.15875 31.328 4.55 29.3617 4.55C27.3955 4.55 25.7867 6.15875 25.7867 8.125H28.0617Z" fill="#333333"/>
<path d="M33.7416 16.25H36.1954L37.1704 13.8125H41.7366L42.7116 16.25H45.1816L40.5991 4.875H38.3241L33.7416 16.25ZM39.4616 8.14125L40.8266 11.5375H38.0966L39.4616 8.14125Z" fill="#333333"/>
<path d="M48.9131 16.25H46.6381V4.875H48.9131V12.3337L54.2756 4.875H56.5506V16.25H54.2756V8.775L48.9131 16.25ZM52.3256 1.38125C52.3256 1.86875 51.9194 2.275 51.4319 2.275C50.9444 2.275 50.5381 1.86875 50.5381 1.38125V1.21875H48.2631V1.38125C48.2631 3.13625 49.6769 4.55 51.4319 4.55C53.1869 4.55 54.6006 3.13625 54.6006 1.38125V1.21875H52.3256V1.38125Z" fill="#333333"/>
<path d="M66.7805 16.25H69.0555V4.875H66.7805V9.425H61.418V4.875H59.143V16.25H61.418V11.7H66.7805V16.25Z" fill="#333333"/>
<path d="M79.4479 10.4H71.4854V12.5125H79.4479V10.4Z" fill="#333333"/>
<path d="M83.671 10.5625C83.671 8.49875 85.3447 6.825 87.4085 6.825C88.4322 6.825 89.3748 7.2475 90.041 7.93L91.6497 6.32125C90.561 5.2325 89.066 4.55 87.4085 4.55C84.0935 4.55 81.396 7.2475 81.396 10.5625C81.396 13.8775 84.0935 16.575 87.4085 16.575C89.066 16.575 90.561 15.9087 91.6497 14.82L90.041 13.2113C89.3748 13.8775 88.4322 14.3 87.4085 14.3C85.3447 14.3 83.671 12.6263 83.671 10.5625Z" fill="#333333"/>
<path d="M101.407 8.775V16.25H103.682V4.875H101.407L96.0445 12.3337V4.875H93.7695V16.25H96.0445L101.407 8.775Z" fill="#333333"/>
<path d="M105.462 4.875V7.15H109.199V16.25H111.474V7.15H115.212V4.875H105.462Z" fill="#333333"/>
<path d="M124.639 8.775V16.25H126.914V4.875H124.639L119.277 12.3337V4.875H117.002V16.25H119.277L124.639 8.775Z" fill="#333333"/>
</g>
</svg>
