<svg width="130" height="30" viewBox="0 0 130 30" fill="none" xmlns="http://www.w3.org/2000/svg">
<path d="M0.1625 21.1875H2.4375V18.75H10.1888V21.1875H12.4638V16.475H10.5138V7.375H8.23875L1.625 16.475H0.1625V21.1875ZM8.23875 16.475H4.43625L8.23875 11.2425V16.475Z" fill="#4F4F4F"/>
<path d="M21.5693 11.275V18.75H23.8443V7.375H21.5693L16.2068 14.8337V7.375H13.9318V18.75H16.2068L21.5693 11.275Z" fill="#4F4F4F"/>
<path d="M28.0617 10.625C28.0617 9.91 28.6467 9.325 29.3617 9.325C30.0767 9.325 30.6617 9.91 30.6617 10.625C30.6617 11.34 30.0767 11.925 29.3617 11.925H28.3867V14.2H29.3617C30.0767 14.2 30.6617 14.785 30.6617 15.5C30.6617 16.215 30.0767 16.8 29.3617 16.8C28.6467 16.8 28.0617 16.215 28.0617 15.5H25.7867C25.7867 17.4662 27.3955 19.075 29.3617 19.075C31.328 19.075 32.9367 17.4662 32.9367 15.5C32.9367 14.5575 32.563 13.7125 31.9617 13.0625C32.563 12.4287 32.9367 11.5675 32.9367 10.625C32.9367 8.65875 31.328 7.05 29.3617 7.05C27.3955 7.05 25.7867 8.65875 25.7867 10.625H28.0617Z" fill="#4F4F4F"/>
<path d="M33.7416 18.75H36.1954L37.1704 16.3125H41.7366L42.7116 18.75H45.1816L40.5991 7.375H38.3241L33.7416 18.75ZM39.4616 10.6412L40.8266 14.0375H38.0966L39.4616 10.6412Z" fill="#4F4F4F"/>
<path d="M48.9131 18.75H46.6381V7.375H48.9131V14.8337L54.2756 7.375H56.5506V18.75H54.2756V11.275L48.9131 18.75ZM52.3256 3.88125C52.3256 4.36875 51.9194 4.775 51.4319 4.775C50.9444 4.775 50.5381 4.36875 50.5381 3.88125V3.71875H48.2631V3.88125C48.2631 5.63625 49.6769 7.05 51.4319 7.05C53.1869 7.05 54.6006 5.63625 54.6006 3.88125V3.71875H52.3256V3.88125Z" fill="#4F4F4F"/>
<path d="M66.7805 18.75H69.0555V7.375H66.7805V11.925H61.418V7.375H59.143V18.75H61.418V14.2H66.7805V18.75Z" fill="#4F4F4F"/>
<path d="M79.4479 12.9H71.4854V15.0125H79.4479V12.9Z" fill="#4F4F4F"/>
<path d="M83.671 13.0625C83.671 10.9987 85.3447 9.325 87.4085 9.325C88.4322 9.325 89.3747 9.7475 90.041 10.43L91.6498 8.82125C90.561 7.7325 89.066 7.05 87.4085 7.05C84.0935 7.05 81.396 9.7475 81.396 13.0625C81.396 16.3775 84.0935 19.075 87.4085 19.075C89.066 19.075 90.561 18.4087 91.6498 17.32L90.041 15.7113C89.3747 16.3775 88.4322 16.8 87.4085 16.8C85.3447 16.8 83.671 15.1263 83.671 13.0625Z" fill="#4F4F4F"/>
<path d="M101.407 11.275V18.75H103.682V7.375H101.407L96.0445 14.8337V7.375H93.7695V18.75H96.0445L101.407 11.275Z" fill="#4F4F4F"/>
<path d="M105.462 7.375V9.65H109.199V18.75H111.474V9.65H115.212V7.375H105.462Z" fill="#4F4F4F"/>
<path d="M124.639 11.275V18.75H126.914V7.375H124.639L119.277 14.8337V7.375H117.002V18.75H119.277L124.639 11.275Z" fill="#4F4F4F"/>
<path d="M17.9349 25.6719H16.9974V27.5H16.4427V23.3906H16.9974V25.1953H17.9427L19.3881 23.3906H19.9896L18.3724 25.3828L20.1068 27.5H19.4506L17.9349 25.6719Z" fill="#4F4F4F"/>
<path d="M22.5326 27.5391C22.1368 27.5391 21.78 27.4505 21.4623 27.2734C21.1446 27.0911 20.8946 26.8411 20.7123 26.5234C20.53 26.2057 20.4388 25.8464 20.4388 25.4453C20.4388 25.0443 20.53 24.6849 20.7123 24.3672C20.8946 24.0495 21.1446 23.8021 21.4623 23.625C21.78 23.4479 22.1368 23.3594 22.5326 23.3594C22.9284 23.3594 23.2852 23.4479 23.6029 23.625C23.9206 23.8021 24.168 24.0495 24.3451 24.3672C24.5274 24.6849 24.6185 25.0443 24.6185 25.4453C24.6185 25.8464 24.5274 26.2057 24.3451 26.5234C24.168 26.8411 23.9206 27.0911 23.6029 27.2734C23.2852 27.4505 22.9284 27.5391 22.5326 27.5391ZM22.5326 27.0469C22.8243 27.0469 23.0847 26.9818 23.3138 26.8516C23.5482 26.7161 23.7305 26.526 23.8607 26.2812C23.9909 26.0365 24.056 25.7578 24.056 25.4453C24.056 25.1328 23.9909 24.8542 23.8607 24.6094C23.7305 24.3646 23.5482 24.1771 23.3138 24.0469C23.0847 23.9115 22.8243 23.8438 22.5326 23.8438C22.2409 23.8438 21.9779 23.9115 21.7435 24.0469C21.5144 24.1771 21.3321 24.3646 21.1967 24.6094C21.0664 24.8542 21.0013 25.1328 21.0013 25.4453C21.0013 25.7578 21.0664 26.0365 21.1967 26.2812C21.3321 26.526 21.5144 26.7161 21.7435 26.8516C21.9779 26.9818 22.2409 27.0469 22.5326 27.0469Z" fill="#4F4F4F"/>
<path d="M27.9212 23.3594C28.3066 23.3594 28.6556 23.4479 28.9681 23.625C29.2806 23.7969 29.5254 24.0417 29.7025 24.3594C29.8795 24.6771 29.9681 25.0391 29.9681 25.4453C29.9681 25.8568 29.8795 26.2214 29.7025 26.5391C29.5254 26.8568 29.2806 27.1042 28.9681 27.2813C28.6608 27.4531 28.3118 27.5391 27.9212 27.5391C27.5879 27.5391 27.2858 27.4714 27.015 27.3359C26.7493 27.1953 26.5306 26.9922 26.3587 26.7266V29.0156H25.804V23.3906H26.3353V24.2031C26.5019 23.9323 26.7207 23.724 26.9915 23.5781C27.2676 23.4323 27.5775 23.3594 27.9212 23.3594ZM27.8821 27.0469C28.1686 27.0469 28.429 26.9818 28.6634 26.8516C28.8978 26.7161 29.0801 26.526 29.2103 26.2812C29.3457 26.0365 29.4134 25.7578 29.4134 25.4453C29.4134 25.1328 29.3457 24.8568 29.2103 24.6172C29.0801 24.3724 28.8978 24.1823 28.6634 24.0469C28.429 23.9115 28.1686 23.8438 27.8821 23.8438C27.5905 23.8438 27.3275 23.9115 27.0931 24.0469C26.8639 24.1823 26.6816 24.3724 26.5462 24.6172C26.416 24.8568 26.3509 25.1328 26.3509 25.4453C26.3509 25.7578 26.416 26.0365 26.5462 26.2812C26.6816 26.526 26.8639 26.7161 27.0931 26.8516C27.3275 26.9818 27.5905 27.0469 27.8821 27.0469Z" fill="#4F4F4F"/>
<path d="M34.8474 23.3906V27.5H34.2927V23.8828H31.7145V27.5H31.1599V23.3906H34.8474Z" fill="#4F4F4F"/>
<path d="M39.9163 23.3906L37.8616 27.9922C37.695 28.3776 37.5023 28.651 37.2835 28.8125C37.0648 28.974 36.8017 29.0547 36.4944 29.0547C36.2965 29.0547 36.1116 29.0234 35.9398 28.9609C35.7679 28.8984 35.6194 28.8047 35.4944 28.6797L35.7523 28.2656C35.9606 28.474 36.2106 28.5781 36.5023 28.5781C36.6898 28.5781 36.8486 28.526 36.9788 28.4219C37.1142 28.3177 37.2392 28.1406 37.3538 27.8906L37.5335 27.4922L35.6976 23.3906H36.2757L37.8226 26.8828L39.3694 23.3906H39.9163Z" fill="#4F4F4F"/>
<path d="M42.3848 27.5391C41.9786 27.5391 41.614 27.4505 41.2911 27.2734C40.9734 27.0964 40.7234 26.849 40.5411 26.5313C40.3588 26.2083 40.2676 25.8464 40.2676 25.4453C40.2676 25.0443 40.3588 24.6849 40.5411 24.3672C40.7234 24.0495 40.9734 23.8021 41.2911 23.625C41.614 23.4479 41.9786 23.3594 42.3848 23.3594C42.739 23.3594 43.0541 23.4297 43.3301 23.5703C43.6114 23.7057 43.8327 23.9062 43.9942 24.1719L43.5801 24.4531C43.4447 24.25 43.2728 24.099 43.0645 24C42.8562 23.8958 42.6296 23.8438 42.3848 23.8438C42.0879 23.8438 41.8197 23.9115 41.5801 24.0469C41.3458 24.1771 41.1609 24.3646 41.0255 24.6094C40.8952 24.8542 40.8301 25.1328 40.8301 25.4453C40.8301 25.763 40.8952 26.0443 41.0255 26.2891C41.1609 26.5286 41.3458 26.7161 41.5801 26.8516C41.8197 26.9818 42.0879 27.0469 42.3848 27.0469C42.6296 27.0469 42.8562 26.9974 43.0645 26.8984C43.2728 26.7995 43.4447 26.6484 43.5801 26.4453L43.9942 26.7266C43.8327 26.9922 43.6114 27.1953 43.3301 27.3359C43.0489 27.4714 42.7338 27.5391 42.3848 27.5391Z" fill="#4F4F4F"/>
<path d="M45.0682 23.3906H45.6229V25.2109H48.2089V23.3906H48.7636V27.5H48.2089V25.6875H45.6229V27.5H45.0682V23.3906Z" fill="#4F4F4F"/>
<path d="M51.7542 23.3594C52.2907 23.3594 52.7021 23.4948 52.9886 23.7656C53.275 24.0313 53.4183 24.4271 53.4183 24.9531V27.5H52.887V26.8594C52.762 27.0729 52.5771 27.2396 52.3323 27.3594C52.0928 27.4792 51.8063 27.5391 51.473 27.5391C51.0146 27.5391 50.65 27.4297 50.3792 27.2109C50.1084 26.9922 49.973 26.7031 49.973 26.3438C49.973 25.9948 50.098 25.7135 50.348 25.5C50.6032 25.2865 51.0068 25.1797 51.5589 25.1797H52.8636V24.9297C52.8636 24.5755 52.7646 24.3073 52.5667 24.125C52.3688 23.9375 52.0797 23.8438 51.6995 23.8438C51.4391 23.8438 51.1891 23.888 50.9495 23.9766C50.7099 24.0599 50.5042 24.1771 50.3323 24.3281L50.0823 23.9141C50.2907 23.737 50.5407 23.6016 50.8323 23.5078C51.124 23.4089 51.4313 23.3594 51.7542 23.3594ZM51.5589 27.1016C51.8714 27.1016 52.1396 27.0313 52.3636 26.8906C52.5875 26.7448 52.7542 26.5365 52.8636 26.2656V25.5938H51.5745C50.8714 25.5938 50.5198 25.8385 50.5198 26.3281C50.5198 26.5677 50.611 26.7578 50.7933 26.8984C50.9756 27.0339 51.2308 27.1016 51.5589 27.1016Z" fill="#4F4F4F"/>
<path d="M58.0511 23.3906V27.5H57.5433V26.1406H56.098L55.1449 27.5H54.5433L55.5668 26.0625C55.2491 25.974 55.0043 25.8229 54.8324 25.6094C54.6605 25.3958 54.5746 25.125 54.5746 24.7969C54.5746 24.3385 54.7308 23.9896 55.0433 23.75C55.3558 23.5104 55.7829 23.3906 56.3246 23.3906H58.0511ZM55.1371 24.8125C55.1371 25.4219 55.5251 25.7266 56.3011 25.7266H57.5433V23.8828H56.3402C55.5381 23.8828 55.1371 24.1927 55.1371 24.8125Z" fill="#4F4F4F"/>
<path d="M66.2712 23.3906V27.5H65.7634V24.25L64.0993 27H63.8493L62.1852 24.2422V27.5H61.6774V23.3906H62.2399L63.9821 26.3516L65.7556 23.3906H66.2712Z" fill="#4F4F4F"/>
<path d="M71.4434 25.6172H68.0059C68.0371 26.0443 68.2012 26.3906 68.498 26.6563C68.7949 26.9167 69.1699 27.0469 69.623 27.0469C69.8783 27.0469 70.1126 27.0026 70.3262 26.9141C70.5397 26.8203 70.7246 26.6849 70.8809 26.5078L71.1934 26.8672C71.0111 27.0859 70.7819 27.2526 70.5059 27.3672C70.235 27.4818 69.9355 27.5391 69.6074 27.5391C69.1855 27.5391 68.8105 27.4505 68.4824 27.2734C68.1595 27.0911 67.9069 26.8411 67.7246 26.5234C67.5423 26.2057 67.4512 25.8464 67.4512 25.4453C67.4512 25.0443 67.5371 24.6849 67.709 24.3672C67.8861 24.0495 68.1257 23.8021 68.4277 23.625C68.735 23.4479 69.0788 23.3594 69.459 23.3594C69.8392 23.3594 70.1803 23.4479 70.4824 23.625C70.7845 23.8021 71.0215 24.0495 71.1934 24.3672C71.3652 24.6797 71.4512 25.0391 71.4512 25.4453L71.4434 25.6172ZM69.459 23.8359C69.0632 23.8359 68.7298 23.9635 68.459 24.2188C68.1934 24.4688 68.0423 24.7969 68.0059 25.2031H70.9199C70.8835 24.7969 70.7298 24.4688 70.459 24.2188C70.1934 23.9635 69.86 23.8359 69.459 23.8359Z" fill="#4F4F4F"/>
<path d="M74.6712 23.4922C75.0514 23.4922 75.39 23.5781 75.6868 23.75C75.9889 23.9167 76.2233 24.1536 76.39 24.4609C76.5566 24.763 76.64 25.1094 76.64 25.5C76.64 25.901 76.5514 26.2578 76.3743 26.5703C76.2025 26.8776 75.9603 27.1172 75.6478 27.2891C75.3353 27.4609 74.9759 27.5469 74.5696 27.5469C73.8873 27.5469 73.3587 27.3073 72.9837 26.8281C72.6087 26.349 72.4212 25.6875 72.4212 24.8438C72.4212 23.9635 72.5879 23.2891 72.9212 22.8203C73.2597 22.3516 73.7858 22.0339 74.4993 21.8672L76.3431 21.4453L76.4368 21.9531L74.7025 22.3516C74.1139 22.4818 73.6816 22.7135 73.4056 23.0469C73.1295 23.375 72.9785 23.862 72.9525 24.5078C73.1191 24.1901 73.3509 23.9427 73.6478 23.7656C73.9446 23.5833 74.2858 23.4922 74.6712 23.4922ZM74.5853 27.0859C74.8717 27.0859 75.1269 27.0208 75.3509 26.8906C75.5801 26.7552 75.7571 26.5677 75.8821 26.3281C76.0123 26.0885 76.0775 25.8177 76.0775 25.5156C76.0775 25.2135 76.015 24.9479 75.89 24.7187C75.765 24.4896 75.5879 24.3125 75.3587 24.1875C75.1347 24.0573 74.8769 23.9922 74.5853 23.9922C74.2936 23.9922 74.0332 24.0573 73.804 24.1875C73.5801 24.3125 73.403 24.4896 73.2728 24.7187C73.1478 24.9479 73.0853 25.2135 73.0853 25.5156C73.0853 25.8177 73.1478 26.0885 73.2728 26.3281C73.403 26.5677 73.5827 26.7552 73.8118 26.8906C74.041 27.0208 74.2988 27.0859 74.5853 27.0859Z" fill="#4F4F4F"/>
<path d="M81.4226 25.6172H77.9851C78.0164 26.0443 78.1804 26.3906 78.4773 26.6563C78.7742 26.9167 79.1492 27.0469 79.6023 27.0469C79.8575 27.0469 80.0919 27.0026 80.3054 26.9141C80.519 26.8203 80.7039 26.6849 80.8601 26.5078L81.1726 26.8672C80.9903 27.0859 80.7611 27.2526 80.4851 27.3672C80.2143 27.4818 79.9148 27.5391 79.5867 27.5391C79.1648 27.5391 78.7898 27.4505 78.4617 27.2734C78.1388 27.0911 77.8861 26.8411 77.7039 26.5234C77.5216 26.2057 77.4304 25.8464 77.4304 25.4453C77.4304 25.0443 77.5164 24.6849 77.6882 24.3672C77.8653 24.0495 78.1049 23.8021 78.407 23.625C78.7143 23.4479 79.058 23.3594 79.4382 23.3594C79.8184 23.3594 80.1596 23.4479 80.4617 23.625C80.7638 23.8021 81.0007 24.0495 81.1726 24.3672C81.3445 24.6797 81.4304 25.0391 81.4304 25.4453L81.4226 25.6172ZM79.4382 23.8359C79.0424 23.8359 78.7091 23.9635 78.4382 24.2188C78.1726 24.4688 78.0216 24.7969 77.9851 25.2031H80.8992C80.8627 24.7969 80.7091 24.4688 80.4382 24.2188C80.1726 23.9635 79.8393 23.8359 79.4382 23.8359Z" fill="#4F4F4F"/>
<path d="M85.9337 23.3906V27.5H85.379V23.8828H83.4103L83.3556 24.8984C83.3139 25.7526 83.215 26.4089 83.0587 26.8672C82.9025 27.3255 82.6238 27.5547 82.2228 27.5547C82.1134 27.5547 81.9806 27.5339 81.8243 27.4922L81.8634 27.0156C81.9572 27.0365 82.0223 27.0469 82.0587 27.0469C82.2723 27.0469 82.4337 26.9479 82.5431 26.75C82.6525 26.5521 82.7254 26.3073 82.7618 26.0156C82.7983 25.724 82.8295 25.3385 82.8556 24.8594L82.9259 23.3906H85.9337Z" fill="#4F4F4F"/>
<path d="M89.2762 24.8438C89.7918 24.849 90.1824 24.9635 90.4481 25.1875C90.7189 25.4115 90.8543 25.7344 90.8543 26.1562C90.8543 26.5937 90.7085 26.9297 90.4168 27.1641C90.1304 27.3984 89.7137 27.513 89.1668 27.5078L87.5106 27.5V23.3906H88.0652V24.8281L89.2762 24.8438ZM89.1356 27.0859C89.5158 27.0911 89.8022 27.0156 89.9949 26.8594C90.1929 26.6979 90.2918 26.4635 90.2918 26.1562C90.2918 25.8542 90.1955 25.6302 90.0027 25.4844C89.81 25.3385 89.521 25.263 89.1356 25.2578L88.0652 25.2422V27.0703L89.1356 27.0859Z" fill="#4F4F4F"/>
<path d="M93.9574 23.3906H94.5121V25.2109H97.098V23.3906H97.6527V27.5H97.098V25.6875H94.5121V27.5H93.9574V23.3906Z" fill="#4F4F4F"/>
<path d="M100.643 23.3594C101.18 23.3594 101.591 23.4948 101.878 23.7656C102.164 24.0313 102.307 24.4271 102.307 24.9531V27.5H101.776V26.8594C101.651 27.0729 101.466 27.2396 101.221 27.3594C100.982 27.4792 100.695 27.5391 100.362 27.5391C99.9038 27.5391 99.5392 27.4297 99.2684 27.2109C98.9975 26.9922 98.8621 26.7031 98.8621 26.3438C98.8621 25.9948 98.9871 25.7135 99.2371 25.5C99.4923 25.2865 99.896 25.1797 100.448 25.1797H101.753V24.9297C101.753 24.5755 101.654 24.3073 101.456 24.125C101.258 23.9375 100.969 23.8438 100.589 23.8438C100.328 23.8438 100.078 23.888 99.8387 23.9766C99.5991 24.0599 99.3934 24.1771 99.2215 24.3281L98.9715 23.9141C99.1798 23.737 99.4298 23.6016 99.7215 23.5078C100.013 23.4089 100.32 23.3594 100.643 23.3594ZM100.448 27.1016C100.761 27.1016 101.029 27.0313 101.253 26.8906C101.477 26.7448 101.643 26.5365 101.753 26.2656V25.5938H100.464C99.7606 25.5938 99.409 25.8385 99.409 26.3281C99.409 26.5677 99.5001 26.7578 99.6824 26.8984C99.8647 27.0339 100.12 27.1016 100.448 27.1016Z" fill="#4F4F4F"/>
<path d="M107.829 25.3594C108.12 25.4271 108.344 25.5443 108.501 25.7109C108.662 25.8776 108.743 26.0807 108.743 26.3203C108.743 26.5599 108.659 26.7734 108.493 26.9609C108.331 27.1484 108.11 27.2943 107.829 27.3984C107.547 27.4974 107.238 27.5469 106.899 27.5469C106.602 27.5469 106.311 27.5052 106.024 27.4219C105.738 27.3333 105.488 27.2057 105.274 27.0391L105.462 26.625C105.649 26.7656 105.868 26.875 106.118 26.9531C106.368 27.0312 106.62 27.0703 106.876 27.0703C107.256 27.0703 107.566 27 107.805 26.8594C108.05 26.7135 108.172 26.5182 108.172 26.2734C108.172 26.0547 108.074 25.8854 107.876 25.7656C107.678 25.6406 107.407 25.5781 107.063 25.5781H106.36V25.1719H107.032C107.339 25.1719 107.587 25.1146 107.774 25C107.962 24.8802 108.055 24.7214 108.055 24.5234C108.055 24.3047 107.949 24.1328 107.735 24.0078C107.527 23.8828 107.253 23.8203 106.915 23.8203C106.472 23.8203 106.034 23.9323 105.602 24.1562L105.446 23.7266C105.936 23.4714 106.443 23.3437 106.969 23.3437C107.282 23.3437 107.563 23.3906 107.813 23.4844C108.068 23.5729 108.266 23.7005 108.407 23.8672C108.553 24.0339 108.626 24.2266 108.626 24.4453C108.626 24.6536 108.553 24.8385 108.407 25C108.266 25.1615 108.074 25.2813 107.829 25.3594Z" fill="#4F4F4F"/>
<path d="M111.416 23.3594C111.953 23.3594 112.364 23.4948 112.65 23.7656C112.937 24.0313 113.08 24.4271 113.08 24.9531V27.5H112.549V26.8594C112.424 27.0729 112.239 27.2396 111.994 27.3594C111.755 27.4792 111.468 27.5391 111.135 27.5391C110.676 27.5391 110.312 27.4297 110.041 27.2109C109.77 26.9922 109.635 26.7031 109.635 26.3438C109.635 25.9948 109.76 25.7135 110.01 25.5C110.265 25.2865 110.669 25.1797 111.221 25.1797H112.525V24.9297C112.525 24.5755 112.426 24.3073 112.229 24.125C112.031 23.9375 111.742 23.8438 111.361 23.8438C111.101 23.8438 110.851 23.888 110.611 23.9766C110.372 24.0599 110.166 24.1771 109.994 24.3281L109.744 23.9141C109.953 23.737 110.203 23.6016 110.494 23.5078C110.786 23.4089 111.093 23.3594 111.416 23.3594ZM111.221 27.1016C111.533 27.1016 111.801 27.0313 112.025 26.8906C112.249 26.7448 112.416 26.5365 112.525 26.2656V25.5938H111.236C110.533 25.5938 110.182 25.8385 110.182 26.3281C110.182 26.5677 110.273 26.7578 110.455 26.8984C110.637 27.0339 110.893 27.1016 111.221 27.1016Z" fill="#4F4F4F"/>
<path d="M116.049 25.6719H115.111V27.5H114.557V23.3906H115.111V25.1953H116.057L117.502 23.3906H118.104L116.486 25.3828L118.221 27.5H117.565L116.049 25.6719Z" fill="#4F4F4F"/>
<path d="M120.434 23.3594C120.97 23.3594 121.382 23.4948 121.668 23.7656C121.955 24.0313 122.098 24.4271 122.098 24.9531V27.5H121.567V26.8594C121.442 27.0729 121.257 27.2396 121.012 27.3594C120.773 27.4792 120.486 27.5391 120.153 27.5391C119.694 27.5391 119.33 27.4297 119.059 27.2109C118.788 26.9922 118.653 26.7031 118.653 26.3438C118.653 25.9948 118.778 25.7135 119.028 25.5C119.283 25.2865 119.687 25.1797 120.239 25.1797H121.543V24.9297C121.543 24.5755 121.444 24.3073 121.247 24.125C121.049 23.9375 120.76 23.8438 120.379 23.8438C120.119 23.8438 119.869 23.888 119.629 23.9766C119.39 24.0599 119.184 24.1771 119.012 24.3281L118.762 23.9141C118.97 23.737 119.22 23.6016 119.512 23.5078C119.804 23.4089 120.111 23.3594 120.434 23.3594ZM120.239 27.1016C120.551 27.1016 120.819 27.0313 121.043 26.8906C121.267 26.7448 121.434 26.5365 121.543 26.2656V25.5938H120.254C119.551 25.5938 119.2 25.8385 119.2 26.3281C119.2 26.5677 119.291 26.7578 119.473 26.8984C119.655 27.0339 119.911 27.1016 120.239 27.1016Z" fill="#4F4F4F"/>
<path d="M125.491 25.3594C125.782 25.4271 126.006 25.5443 126.163 25.7109C126.324 25.8776 126.405 26.0807 126.405 26.3203C126.405 26.5599 126.322 26.7734 126.155 26.9609C125.993 27.1484 125.772 27.2943 125.491 27.3984C125.21 27.4974 124.9 27.5469 124.561 27.5469C124.264 27.5469 123.973 27.5052 123.686 27.4219C123.4 27.3333 123.15 27.2057 122.936 27.0391L123.124 26.625C123.311 26.7656 123.53 26.875 123.78 26.9531C124.03 27.0312 124.282 27.0703 124.538 27.0703C124.918 27.0703 125.228 27 125.467 26.8594C125.712 26.7135 125.835 26.5182 125.835 26.2734C125.835 26.0547 125.736 25.8854 125.538 25.7656C125.34 25.6406 125.069 25.5781 124.725 25.5781H124.022V25.1719H124.694C125.001 25.1719 125.249 25.1146 125.436 25C125.624 24.8802 125.717 24.7214 125.717 24.5234C125.717 24.3047 125.611 24.1328 125.397 24.0078C125.189 23.8828 124.915 23.8203 124.577 23.8203C124.134 23.8203 123.697 23.9323 123.264 24.1562L123.108 23.7266C123.598 23.4714 124.105 23.3437 124.631 23.3437C124.944 23.3437 125.225 23.3906 125.475 23.4844C125.73 23.5729 125.928 23.7005 126.069 23.8672C126.215 24.0339 126.288 24.2266 126.288 24.4453C126.288 24.6536 126.215 24.8385 126.069 25C125.928 25.1615 125.736 25.2813 125.491 25.3594Z" fill="#4F4F4F"/>
</svg>
