<svg viewBox="0 0 120 120" fill="none" xmlns="http://www.w3.org/2000/svg">
<path d="M4.40771 49.4397C12.8217 35.6167 22.6381 27.2026 36.6613 25.8003H38.4643C56.3882 25.8003 70.9184 40.3305 70.9184 58.2544V84.2978C70.9184 87.6171 68.2276 90.3078 64.9084 90.3078H15.2258C9.25111 90.3078 4.40771 85.4644 4.40771 79.4898V49.4397Z" fill="#242424"/>
<path d="M68.514 83.4971H107.98L98.9648 92.7124H59.499L68.514 83.4971Z" fill="#FEB413"/>
<path d="M66.9111 89.9082L73.3218 83.4976H74.7242L68.5138 89.9082H66.9111Z" fill="#363C3D"/>
<path d="M76.5278 86.7014L79.7332 83.4961H81.1355L78.1305 86.7014H76.5278Z" fill="#363C3D"/>
<path d="M79.7329 89.9068L86.1436 83.4961H87.5459L81.3356 89.9068H79.7329Z" fill="#363C3D"/>
<path d="M89.3496 86.7014L92.555 83.4961H93.9573L90.9523 86.7014H89.3496Z" fill="#363C3D"/>
<path d="M92.554 89.9068L98.9646 83.4961H100.367L94.1566 89.9068H92.554Z" fill="#363C3D"/>
<path d="M102.171 86.7014L105.376 83.4961H106.778L103.773 86.7014H102.171Z" fill="#363C3D"/>
<path d="M0 53.8464C9.01503 37.8197 17.2287 31.2087 31.8531 30.207H33.6561C51.58 30.207 66.1102 44.7372 66.1102 62.6611V88.7046C66.1102 92.0238 63.4194 94.7146 60.1002 94.7146H10.818C4.8434 94.7146 0 89.8712 0 83.8965V53.8464Z" fill="#393939"/>
<path d="M10.818 94.7161H42.0701C44.283 94.7161 46.0768 92.9223 46.0768 90.7095V86.3941C55.0904 82.0075 61.3022 72.76 61.3022 62.0617C61.3022 47.1251 49.1937 35.0166 34.2571 35.0166C24.0413 35.0166 15.1483 40.6808 10.5475 49.04H4.80802C2.15262 49.04 0 51.1926 0 53.848V83.8981C0 89.8727 4.8434 94.7161 10.818 94.7161Z" fill="#FEB415"/>
<circle cx="34.2575" cy="62.0602" r="20.6344" fill="#393939"/>
<path d="M63.3128 35.6144L58.7734 40.1571C63.3128 39.5847 66.8247 44.5805 64.2647 48.9322L68.945 44.2349C71.5051 39.8832 67.7747 34.8189 63.3128 35.6144Z" fill="#ECB540"/>
<path d="M64.9668 53.9924L69.7307 49.427C69.7307 49.427 69.5752 45.6483 68.9455 44.2354L64.2651 48.9327C64.8608 50.3055 64.9668 53.9924 64.9668 53.9924Z" fill="#D99A29"/>
<path d="M59.1252 33.1865L54.5359 37.7758C54.5359 37.7758 57.6906 38.9256 58.7736 40.1563L63.313 35.6136C62.2633 34.4584 59.1252 33.1865 59.1252 33.1865Z" fill="#D99A29"/>
<path d="M54.5356 37.7754C59.4978 41.9423 63.1946 47.5673 64.9663 53.9907C64.9663 53.9907 64.8604 50.3038 64.2646 48.931C66.8247 44.5793 63.3127 39.5834 58.7734 40.1559C57.6903 38.9252 54.5356 37.7754 54.5356 37.7754Z" fill="#FFB315"/>
<path d="M107.98 83.0947H120L110.985 92.3101H98.9648L107.98 83.0947Z" fill="#393939"/>
<path d="M110.985 93.1118L120 84.0968V74.8814L118.798 74.0801L110.985 81.8931V93.1118Z" fill="#5D5D5D"/>
<rect x="98.9648" y="92.3101" width="12.02" height="0.801336" fill="#212121"/>
</svg>
