<svg viewBox="0 0 120 120" fill="none" xmlns="http://www.w3.org/2000/svg">
<ellipse cx="77.5887" cy="81.1279" rx="6.95052" ry="7.10646" fill="#1D303F"/>
<ellipse cx="77.5858" cy="81.1296" rx="4.68756" ry="4.79274" fill="#102129"/>
<ellipse cx="28.4493" cy="81.1284" rx="6.95052" ry="7.10646" fill="#1D303F"/>
<ellipse cx="28.45" cy="81.1296" rx="4.68756" ry="4.79274" fill="#102129"/>
<rect y="88.2173" width="120" height="1.97368" fill="#263F5A"/>
<rect x="13.0913" y="40.9678" width="18.427" height="36.0281" fill="#A6C0D1"/>
<rect x="31.5198" y="40.9678" width="41.7031" height="36.0281" fill="#D7E9F7"/>
<rect x="73.2239" y="48.2393" width="5.17248" height="28.7564" fill="#E44F24"/>
<path d="M11.3145 78.1534C11.3145 77.5145 11.821 76.9966 12.4459 76.9966H31.6811V81.7893H12.4459C11.821 81.7893 11.3145 81.2714 11.3145 80.6324V78.1534Z" fill="#1D3341"/>
<path d="M30.8738 77.8229C30.8738 77.3665 31.2356 76.9966 31.682 76.9966H108.461C108.997 76.9966 109.431 77.4405 109.431 77.9882V80.7977C109.431 81.3454 108.997 81.7893 108.461 81.7893H31.682C31.2356 81.7893 30.8738 81.4194 30.8738 80.963V77.8229Z" fill="#26405B"/>
<path d="M76.6187 50.2225C76.6187 49.1272 77.4871 48.2393 78.5583 48.2393H90.4215C93.8101 48.2393 96.9693 49.9901 98.8188 52.8932L105.392 63.2102C106.657 65.1961 107.33 67.5151 107.33 69.8851V76.9956H76.6187V50.2225Z" fill="#FF6D3A"/>
<ellipse cx="45.0973" cy="81.1284" rx="6.95052" ry="7.10646" fill="#1D303F"/>
<ellipse cx="45.0977" cy="81.1296" rx="4.68756" ry="4.79274" fill="#D7E9F7"/>
<ellipse cx="93.5904" cy="81.1279" rx="6.95052" ry="7.10646" fill="#1D303F"/>
<ellipse cx="93.5892" cy="81.1296" rx="4.68756" ry="4.79274" fill="#D7E9F7"/>
<rect x="13.0913" y="29.4009" width="42.8346" height="11.5687" fill="#D7E9F7"/>
<path d="M3.63647 31.3843H22.0634L31.5194 40.9697H13.0924L3.63647 31.3843Z" fill="#829FAF"/>
<path d="M40.8949 31.3843H82.598L73.2229 40.9697H31.5198L40.8949 31.3843Z" fill="#A6C0D1"/>
<path d="M26.8323 71.3788C26.8323 71.0137 27.1218 70.7178 27.4788 70.7178H31.5198V74.0231H27.4788C27.1218 74.0231 26.8323 73.7271 26.8323 73.362V71.3788Z" fill="#E34E27"/>
<path d="M17.7808 73.362C17.7808 73.7271 17.4914 74.0231 17.1343 74.0231L13.0933 74.0231C13.004 74.0231 12.9316 73.9491 12.9316 73.8578L12.9316 70.883C12.9316 70.7918 13.004 70.7178 13.0933 70.7178L17.1343 70.7178C17.4914 70.7178 17.7808 71.0137 17.7808 71.3788L17.7808 73.362Z" fill="#E34E27"/>
<path d="M101.671 71.3788C101.671 71.0137 101.961 70.7178 102.318 70.7178H107.167C107.256 70.7178 107.329 70.7918 107.329 70.883V73.8578C107.329 73.9491 107.256 74.0231 107.167 74.0231H102.318C101.961 74.0231 101.671 73.7271 101.671 73.362V71.3788Z" fill="#FFFFFD"/>
<path d="M31.5198 70.7178H36.5306C36.8877 70.7178 37.1772 71.0137 37.1772 71.3788V73.362C37.1772 73.7271 36.8877 74.0231 36.5306 74.0231H31.5198V70.7178Z" fill="#FE6E3E"/>
<path d="M82.1118 51.2148H90.0785C92.0128 51.2148 93.813 52.2252 94.8515 53.8937L100.971 63.7263C101.519 64.6065 100.901 65.7583 99.8804 65.7583H82.1118V51.2148Z" fill="white"/>
<path d="M15.8401 78.1538C15.8401 77.9712 15.9848 77.8232 16.1634 77.8232H22.629C22.8075 77.8232 22.9522 77.9712 22.9522 78.1538V80.6328C22.9522 80.8153 22.8075 80.9633 22.629 80.9633H16.1634C15.9848 80.9633 15.8401 80.8153 15.8401 80.6328V78.1538Z" fill="#26405B"/>
</svg>
